<svg width="20" height="20" viewBox="0 0 20 20" fill="none" xmlns="http://www.w3.org/2000/svg">
<path d="M5.87505 14.125C2.3121 13.9068 1.66667 12.7337 1.66667 8.33334V7.50001C1.66667 2.50001 2.5 1.66667 7.5 1.66667H8.33333C12.7337 1.66667 13.9068 2.3121 14.125 5.87505M5.87505 14.125C6.3606 14.1547 6.90033 14.1667 7.5 14.1667H8.33333C13.3333 14.1667 14.1667 13.3333 14.1667 8.33334V7.50001C14.1667 6.90034 14.1547 6.3606 14.125 5.87505M5.87505 14.125C6.09316 17.6879 7.26634 18.3333 11.6667 18.3333H12.5C17.5 18.3333 18.3333 17.5 18.3333 12.5V11.6667C18.3333 7.26634 17.6879 6.09316 14.125 5.87505" stroke="#626B79" stroke-width="1.5" stroke-linecap="round" stroke-linejoin="round"/>
</svg>
