<svg width="16" height="16" viewBox="0 0 16 16" fill="none" xmlns="http://www.w3.org/2000/svg">
<path d="M11.2142 6.94759C11.2142 6.94761 11.2142 6.94763 11.2142 6.94765L11.2142 6.94759ZM11.1859 6.91926L11.1858 6.91931C11.1858 6.9193 11.1859 6.91928 11.1859 6.91926ZM2.66663 11.1668C2.68501 11.1668 2.69997 11.1817 2.69997 11.2001V12.8001C2.69997 13.6658 3.39785 14.3668 4.26274 14.3668H11.7346C12.5996 14.3668 13.3 13.6655 13.3 12.8001V11.2001C13.3 11.1818 13.3149 11.1668 13.3333 11.1668C13.3517 11.1668 13.3666 11.1818 13.3666 11.2001V12.8001C13.3666 13.7022 12.6366 14.4335 11.7346 14.4335H4.26274C3.36068 14.4335 2.6333 13.7022 2.6333 12.8001V11.2001C2.6333 11.1817 2.64825 11.1668 2.66663 11.1668Z" fill="#09090B" stroke="#18181B"/>
</svg>
