<svg width="20" height="20" viewBox="0 0 20 20" fill="none" xmlns="http://www.w3.org/2000/svg">
<path d="M2.5 17.5C2.08579 17.5 1.75 17.8358 1.75 18.25C1.75 18.6642 2.08579 19 2.5 19V17.5ZM17.5 19C17.9142 19 18.25 18.6642 18.25 18.25C18.25 17.8358 17.9142 17.5 17.5 17.5V19ZM11.05 2.94687L10.5059 2.43073L10.5053 2.43128L11.05 2.94687ZM4.20833 10.1743L3.66367 9.65868L3.6622 9.66023L4.20833 10.1743ZM3.65 11.3636L2.9066 11.2643C2.90598 11.269 2.9054 11.2736 2.90486 11.2783L3.65 11.3636ZM3.34167 14.0583L2.59653 13.973L2.59627 13.9753L3.34167 14.0583ZM4.9 15.5304L4.77397 14.791L4.77281 14.7912L4.9 15.5304ZM7.58333 15.0729L7.70937 15.8123L7.71436 15.8114L7.58333 15.0729ZM8.74167 14.4492L8.19692 13.9335L8.18795 13.9433L8.74167 14.4492ZM15.5833 7.22177L15.0392 6.70563L15.0387 6.70617L15.5833 7.22177ZM15.4583 2.8138L15.9731 2.26838L15.9717 2.26708L15.4583 2.8138ZM2.5 19H17.5V17.5H2.5V19ZM3.6622 9.66023C3.45995 9.87511 3.29262 10.1549 3.17156 10.414C3.05001 10.6741 2.94481 10.9783 2.9066 11.2643L4.3934 11.4629C4.40519 11.3747 4.44999 11.2213 4.53052 11.049C4.61155 10.8756 4.69839 10.7479 4.75446 10.6883L3.6622 9.66023ZM2.90486 11.2783L2.59653 13.973L4.0868 14.1435L4.39514 11.4489L2.90486 11.2783ZM2.59627 13.9753C2.51984 14.6618 2.7259 15.3155 3.20216 15.7663C3.67895 16.2176 4.34381 16.3871 5.02719 16.2695L4.77281 14.7912C4.48952 14.84 4.32105 14.76 4.23326 14.6769C4.14493 14.5933 4.05516 14.4278 4.08706 14.1413L2.59627 13.9753ZM5.02603 16.2697L7.70937 15.8123L7.4573 14.3336L4.77397 14.791L5.02603 16.2697ZM7.71436 15.8114C8.00148 15.7605 8.30234 15.641 8.55933 15.5038C8.8146 15.3676 9.08931 15.1806 9.29539 14.955L8.18795 13.9433C8.13569 14.0005 8.01873 14.0921 7.85317 14.1805C7.68933 14.2679 7.54019 14.3189 7.45231 14.3345L7.71436 15.8114ZM16.1275 7.73791C16.7604 7.07064 17.3341 6.24369 17.4034 5.2542C17.4754 4.22516 16.9924 3.23038 15.9731 2.26838L14.9435 3.35923C15.766 4.13547 15.9371 4.7209 15.907 5.1494C15.8743 5.61744 15.5896 6.12536 15.0392 6.70563L16.1275 7.73791ZM15.9717 2.26708C14.9555 1.31275 13.9366 0.89263 12.9155 1.02295C11.9334 1.14828 11.1392 1.763 10.5059 2.43073L11.5941 3.46302C12.1441 2.88321 12.6374 2.5706 13.1054 2.51088C13.5343 2.45614 14.1278 2.59325 14.9449 3.36053L15.9717 2.26708ZM14.2646 7.94151C13.3737 7.85857 12.415 7.4279 11.6282 6.64266L10.5686 7.70436C11.5876 8.72136 12.8663 9.31782 14.1256 9.43505L14.2646 7.94151ZM9.28633 14.9648L14.7398 9.20388L13.6504 8.17268L8.197 13.9336L9.28633 14.9648ZM14.7398 9.20388L16.128 7.73737L15.0387 6.70617L13.6504 8.17268L14.7398 9.20388ZM11.6282 6.64266C10.9307 5.94654 10.5117 5.11464 10.3685 4.31452L8.89195 4.57889C9.09172 5.69459 9.66362 6.80121 10.5686 7.70436L11.6282 6.64266ZM10.5053 2.43128L9.08555 3.93111L10.1749 4.9623L11.5947 3.46247L10.5053 2.43128ZM9.08555 3.93111L3.66367 9.65868L4.753 10.6899L10.1749 4.9623L9.08555 3.93111Z" fill="#626B79"/>
</svg>
