<svg width="16" height="16" viewBox="0 0 16 16" fill="none" xmlns="http://www.w3.org/2000/svg">
<path fill-rule="evenodd" clip-rule="evenodd" d="M4.21293 3.14652V4.79981C4.21293 5.06491 3.99802 5.27981 3.73293 5.27981C3.46783 5.27981 3.25293 5.06491 3.25293 4.79981V2.66654C3.25293 2.61579 3.2608 2.56689 3.27539 2.52098C3.33704 2.32704 3.51857 2.18652 3.73293 2.18652H12.2662C12.432 2.18652 12.578 2.27047 12.6643 2.39815C12.716 2.47476 12.7462 2.56711 12.7462 2.66652V4.79981C12.7462 5.06491 12.5314 5.27981 12.2662 5.27981C12.0012 5.27981 11.7862 5.06491 11.7862 4.79981V3.14652H8.58626V12.8532H9.8709C10.136 12.8532 10.3509 13.0681 10.3509 13.3332C10.3509 13.5983 10.136 13.8132 9.8709 13.8132H6.13757C5.87247 13.8132 5.65757 13.5983 5.65757 13.3332C5.65757 13.0681 5.87247 12.8532 6.13757 12.8532H7.41293V3.14652H4.21293Z" fill="#F4F4F5"/>
<path d="M7.91293 2.68652H8.08626V3.14652V12.8532V13.3132H7.91293V12.8532V3.14652V2.68652Z" stroke="#18181B" stroke-opacity="0.5"/>
</svg>
