<svg width="24" height="24" viewBox="0 0 24 24" fill="none" xmlns="http://www.w3.org/2000/svg">
<path d="M5.06247 7.45423C5.36786 7.14313 5.73717 6.9029 6.14434 6.74981L6.15137 6.74712C6.55094 6.59174 7.02181 6.47762 7.75396 6.44415C8.53575 6.40848 8.77795 6.4 10.8045 6.4C12.831 6.4 13.0731 6.40896 13.8547 6.44415L13.6575 6.44415C13.7203 6.4469 13.7857 6.44985 13.8553 6.45302C14.6557 6.48969 15.1231 6.62574 15.4548 6.75542C15.8894 6.92381 16.217 7.13726 16.5442 7.46386C16.8721 7.79176 17.0854 8.1202 17.2537 8.55447C17.3823 8.885 17.5192 9.35211 17.556 10.1536C17.5925 10.9573 17.6 11.2063 17.6 13.2045C17.6 15.2026 17.5925 15.4514 17.556 16.2551C17.5195 17.0515 17.3846 17.5185 17.2555 17.8499C17.1023 18.2628 16.8595 18.6367 16.5447 18.9447C16.2366 19.2597 15.8625 19.5025 15.4493 19.6557C15.1191 19.7838 14.6527 19.9194 13.8553 19.956C13.0517 19.9925 12.8031 20 10.8045 20C8.80582 20 8.55752 19.9925 7.75384 19.956C6.95746 19.9195 6.4905 19.7846 6.1591 19.6555C5.74615 19.5023 5.37225 19.2595 5.06425 18.9447C4.74935 18.6365 4.50656 18.2625 4.35333 17.8494C4.3491 17.8385 4.34487 17.8275 4.34063 17.8163L4.34981 17.8646L4.34712 17.8576C4.19173 17.458 4.07762 16.9872 4.04415 16.255C4.00848 15.4732 4 15.2315 4 13.2045C4 11.178 4.00897 10.9357 4.04416 10.1541C4.07764 9.42253 4.19218 8.95073 4.34709 8.55024L4.34917 8.54471C4.50267 8.13719 4.74314 7.76801 5.05383 7.46287L5.0582 7.45859L5.06247 7.45423Z" stroke="black" stroke-linejoin="round"/>
<path d="M8.8 4.04934C9.67377 4.00947 9.94447 4 12.2094 4C14.4743 4 14.7449 4.01001 15.6185 4.04935L15.3981 4.04935C15.4683 4.05242 15.5414 4.05571 15.6192 4.05925C16.5137 4.10025 17.0361 4.25229 17.4068 4.39724C17.8926 4.58543 18.2587 4.82399 18.6244 5.18902C18.9909 5.5555 19.2293 5.92258 19.4173 6.40794C19.5611 6.77735 19.7141 7.29941 19.7552 8.19524C19.7961 9.09347 19.8044 9.37177 19.8044 11.605C19.8044 13.8382 19.7961 14.1163 19.7552 15.0145" stroke="black" stroke-linejoin="round"/>
</svg>
