<svg width="16" height="16" viewBox="0 0 16 16" fill="none" xmlns="http://www.w3.org/2000/svg">
<path fill-rule="evenodd" clip-rule="evenodd" d="M5.26071 5.794C5.07325 5.98146 5.07325 6.28538 5.26071 6.47283C5.44817 6.66028 5.75208 6.66028 5.93954 6.47283L8.00012 4.41223L10.0607 6.47283C10.2482 6.66028 10.5521 6.66028 10.7395 6.47283C10.927 6.28538 10.927 5.98146 10.7395 5.794L8.33954 3.394C8.24951 3.30399 8.12742 3.25342 8.00012 3.25342C7.87282 3.25342 7.75073 3.30399 7.66071 3.394L5.26071 5.794ZM10.7395 10.2062C10.927 10.0187 10.927 9.71479 10.7395 9.52734C10.5521 9.33989 10.2482 9.33989 10.0607 9.52734L8.00012 11.5879L5.93954 9.52734C5.75208 9.33989 5.44817 9.33989 5.26071 9.52734C5.07325 9.71479 5.07325 10.0187 5.26071 10.2062L7.66071 12.6062C7.84817 12.7936 8.15208 12.7936 8.33954 12.6062L10.7395 10.2062Z" fill="#09090B"/>
<path d="M5.61431 6.14751C5.6143 6.14752 5.61428 6.14754 5.61426 6.14756M5.61431 6.14751L5.61426 6.14756M5.61431 6.14751L5.61426 6.14756M5.61431 6.14751L5.61426 6.14756M10.4001 9.86672L10.386 9.85261L10.0607 9.52734L10.4001 9.86672ZM10.4001 9.86672V9.86672ZM5.61432 9.85267L5.61426 9.85261C5.61428 9.85263 5.6143 9.85265 5.61432 9.85267Z" stroke="#18181B" stroke-opacity="0.5"/>
</svg>
