<svg width="20" height="20" viewBox="0 0 20 20" fill="none" xmlns="http://www.w3.org/2000/svg">
<path d="M17.0008 5.20001H11.0777C10.5064 5.20001 9.9586 5.42477 9.55467 5.82485C9.15075 6.22493 8.92383 6.76755 8.92383 7.33335V10" stroke="#626B79" stroke-width="1.5" stroke-linecap="round" stroke-linejoin="round"/>
<path d="M13.7695 8.4L17.0003 5.2L13.7695 2" stroke="#626B79" stroke-width="1.5" stroke-linecap="round" stroke-linejoin="round"/>
<path d="M14.8462 11.6V16.9333C14.8462 17.2162 14.7327 17.4876 14.5307 17.6876C14.3288 17.8876 14.0548 18 13.7692 18H4.07692C3.79131 18 3.51739 17.8876 3.31542 17.6876C3.11346 17.4876 3 17.2162 3 16.9333V8.40001C3 8.11711 3.11346 7.8458 3.31542 7.64576C3.51739 7.44572 3.79131 7.33334 4.07692 7.33334H5.69231" stroke="#626B79" stroke-width="1.5" stroke-linecap="round" stroke-linejoin="round"/>
</svg>
