<svg width="24" height="24" viewBox="0 0 24 24" fill="none" xmlns="http://www.w3.org/2000/svg">
<path d="M2 10C2 7.19974 2 5.79961 2.54497 4.73005C3.02433 3.78924 3.78924 3.02433 4.73005 2.54497C5.79961 2 7.19974 2 10 2H14C16.8003 2 18.2004 2 19.27 2.54497C20.2108 3.02433 20.9757 3.78924 21.455 4.73005C22 5.79961 22 7.19974 22 10V14C22 16.8003 22 18.2004 21.455 19.27C20.9757 20.2108 20.2108 20.9757 19.27 21.455C18.2004 22 16.8003 22 14 22H10C7.19974 22 5.79961 22 4.73005 21.455C3.78924 20.9757 3.02433 20.2108 2.54497 19.27C2 18.2004 2 16.8003 2 14V10Z" stroke="#626B79" stroke-width="1.5" stroke-linecap="round" stroke-linejoin="round"/>
<path d="M13.8062 14.9358C13.1826 15.6485 12.8708 16.0048 12.5013 16.1358C12.177 16.2509 11.823 16.2509 11.4987 16.1358C11.1292 16.0048 10.8174 15.6485 10.1938 14.9358L8.48286 12.9804C7.37665 11.7162 6.82355 11.0841 6.80642 10.5479C6.79153 10.082 6.99405 9.63573 7.35445 9.34017C7.76923 9 8.60917 9 10.289 9H13.711C15.3908 9 16.2308 9 16.6455 9.34017C17.0059 9.63573 17.2085 10.082 17.1936 10.5479C17.1765 11.0841 16.6233 11.7162 15.5171 12.9804L13.8062 14.9358Z" stroke="#626B79" stroke-width="1.5" stroke-linecap="round" stroke-linejoin="round"/>
</svg>
