<svg width="161" height="48" viewBox="0 0 161 48" fill="none" xmlns="http://www.w3.org/2000/svg">
<g clip-path="url(#clip0_1940_1568)">
<g clip-path="url(#clip1_1940_1568)">
<path d="M41.356 24.7484C40.6075 24.7484 39.8006 24.7275 38.9309 24.6815C38.0612 24.6355 37.1957 24.5686 36.326 24.4808C35.4563 24.393 34.6493 24.2801 33.9009 24.1421C33.1525 24.0083 32.5253 23.8495 32.0152 23.6697V19.7644H42.7023C43.3295 19.7644 43.8479 19.7143 44.2535 19.6056C44.6591 19.501 44.956 19.3087 45.1525 19.0202C45.3448 18.7359 45.4452 18.3219 45.4452 17.7867V17.0216C45.4452 16.4237 45.2486 15.9596 44.8598 15.6292C44.4709 15.2989 43.7518 15.1359 42.7023 15.1359H38.9309C37.5553 15.1359 36.3093 14.9268 35.2013 14.5087C34.0932 14.0906 33.2194 13.4007 32.5755 12.4432C31.9316 11.4857 31.6096 10.1979 31.6096 8.57977V7.18743C31.6096 5.6613 31.9107 4.3735 32.5086 3.32402C33.1065 2.27454 34.11 1.4843 35.519 0.944924C36.9239 0.405551 38.8556 0.133774 41.31 0.133774C42.2967 0.133774 43.3546 0.188129 44.4751 0.292659C45.5999 0.397188 46.6619 0.530986 47.6654 0.698234C48.6689 0.8613 49.4675 1.04945 50.0696 1.25851V5.16374H39.9636C39.0939 5.16374 38.4375 5.3059 37.9859 5.59022C37.5385 5.87454 37.3128 6.40555 37.3128 7.18325V7.90242C37.3128 8.44179 37.4173 8.839 37.6263 9.09405C37.8354 9.34911 38.1574 9.5289 38.5922 9.63343C39.027 9.73796 39.5706 9.79231 40.2312 9.79231H44.0946C46.549 9.79231 48.3385 10.3526 49.4633 11.4773C50.588 12.6021 51.1483 14.1491 51.1483 16.1268V18.2843C51.1483 19.9024 50.7678 21.1819 50.0027 22.1226C49.2375 23.0676 48.1295 23.7407 46.6786 24.1421C45.2277 24.5477 43.4507 24.7484 41.356 24.7484Z" fill="#0A263D"/>
<path d="M59.5901 24.7484C57.4326 24.7484 55.7434 24.1129 54.5142 22.8376C53.2849 21.5665 52.6744 19.7603 52.6744 17.4272V0.359573H59.3225V15.4495C59.3225 16.7958 59.6445 17.7031 60.2884 18.1672C60.9323 18.6314 61.7769 18.8655 62.8264 18.8655C63.6626 18.8655 64.5239 18.7066 65.4103 18.393C66.2926 18.0794 67.0786 17.653 67.7685 17.1136V0.359573H74.4584V24.4766H68.9351L67.7685 22.0056C66.6898 22.7247 65.448 23.3603 64.0389 23.9164C62.6298 24.4725 61.1497 24.7484 59.5943 24.7484H59.5901Z" fill="#0A263D"/>
<path d="M76.9713 35.122V0.359582H82.5407L83.6194 2.65087C84.1881 2.20348 84.8152 1.777 85.5051 1.37143C86.195 0.965853 86.9435 0.639721 87.7504 0.384669C88.5574 0.129616 89.4104 0.00418091 90.3093 0.00418091C91.7769 0.00418091 93.0564 0.288501 94.1477 0.857143C95.2389 1.42578 96.1295 2.24948 96.8194 3.32822C97.5093 4.40697 98.0152 5.71568 98.3456 7.25854C98.6759 8.80139 98.8389 10.5282 98.8389 12.4474C98.8389 15.023 98.5839 17.239 98.0738 19.0955C97.5637 20.9519 96.6898 22.3652 95.448 23.3394C94.2062 24.3136 92.4919 24.7986 90.3051 24.7986C89.1679 24.7986 88.0055 24.6648 86.8264 24.393C85.6431 24.1254 84.5727 23.7366 83.6152 23.2265V35.1261H76.9672L76.9713 35.122ZM88.156 19.3129C88.8459 19.3129 89.5024 19.1247 90.1337 18.7526C90.7609 18.3805 91.2626 17.699 91.6389 16.708C92.0111 15.7213 92.1992 14.2997 92.1992 12.4432C92.1992 10.5868 92.0278 9.23206 91.6807 8.1993C91.3379 7.16655 90.8654 6.43484 90.2675 6C89.6696 5.56516 88.9672 5.34773 88.156 5.34773C87.2278 5.34773 86.3748 5.49826 85.5971 5.79512C84.8194 6.09617 84.1588 6.39303 83.6194 6.69408V18.1463C84.2173 18.5059 84.9198 18.7902 85.7309 18.9993C86.5379 19.2084 87.349 19.3129 88.156 19.3129Z" fill="#0A263D"/>
<path d="M110.877 24.7024C108.209 24.7024 106.085 24.3512 104.5 23.6488C102.911 22.9463 101.766 21.6962 101.063 19.8983C100.361 18.1003 100.01 15.6167 100.01 12.4432C100.01 9.26969 100.34 6.64808 100.996 4.85435C101.653 3.05645 102.761 1.80209 104.32 1.08293C105.876 0.363763 107.987 0.00418091 110.651 0.00418091C113.047 0.00418091 114.962 0.242508 116.4 0.723345C117.838 1.20418 118.875 2.04042 119.519 3.24042C120.163 4.43624 120.485 6.12962 120.485 8.31638C120.485 9.93449 120.163 11.2139 119.519 12.1547C118.875 13.0997 117.968 13.7728 116.801 14.1742C115.635 14.5798 114.255 14.7805 112.67 14.7805H106.608C106.666 16.0098 106.854 16.9882 107.168 17.724C107.481 18.4599 108.067 18.9826 108.92 19.2962C109.773 19.6098 111.006 19.7686 112.624 19.7686H119.674V23.6739C118.507 23.9122 117.228 24.1463 115.835 24.3721C114.443 24.5979 112.787 24.7108 110.872 24.7108L110.877 24.7024ZM106.52 10.8251H111.997C112.896 10.8251 113.553 10.6453 113.975 10.2857C114.393 9.92613 114.602 9.28223 114.602 8.35401C114.602 7.48432 114.468 6.79024 114.196 6.26341C113.929 5.74077 113.507 5.36446 112.938 5.13868C112.369 4.91289 111.604 4.8 110.647 4.8C109.626 4.8 108.819 4.97143 108.221 5.31847C107.624 5.66132 107.189 6.2676 106.917 7.13728C106.649 8.00697 106.516 9.23206 106.516 10.8209L106.52 10.8251Z" fill="#0A263D"/>
<path d="M122.329 24.4767V0.359579H127.451L128.977 4.0432C129.847 2.93519 130.825 1.99442 131.92 1.21254C133.012 0.43484 134.308 0.04599 135.805 0.04599C136.135 0.04599 136.47 0.0627147 136.817 0.091983C137.159 0.121251 137.481 0.179788 137.782 0.271774V7.09547C137.335 7.03693 136.863 6.98258 136.369 6.93658C135.876 6.89059 135.403 6.86968 134.956 6.86968C134.086 6.86968 133.3 6.96585 132.598 7.16237C131.895 7.35888 131.251 7.6432 130.666 8.01533C130.081 8.39163 129.52 8.87665 128.981 9.47456V24.4767H122.333H122.329Z" fill="#0A263D"/>
<path d="M138.811 35.122V0.359582H144.38L145.459 2.65087C146.028 2.20348 146.655 1.777 147.345 1.37143C148.035 0.965853 148.783 0.639721 149.59 0.384669C150.397 0.129616 151.25 0.00418091 152.149 0.00418091C153.617 0.00418091 154.896 0.288501 155.987 0.857143C157.079 1.42578 157.969 2.24948 158.659 3.32822C159.349 4.40697 159.855 5.71568 160.185 7.25854C160.516 8.80139 160.679 10.5282 160.679 12.4474C160.679 15.023 160.424 17.239 159.913 19.0955C159.403 20.9519 158.529 22.3652 157.288 23.3394C156.046 24.3136 154.332 24.7986 152.145 24.7986C151.008 24.7986 149.845 24.6648 148.666 24.393C147.483 24.1254 146.412 23.7366 145.455 23.2265V35.1261H138.807L138.811 35.122ZM149.996 19.3129C150.686 19.3129 151.342 19.1247 151.973 18.7526C152.601 18.3805 153.102 17.699 153.479 16.708C153.851 15.7213 154.039 14.2997 154.039 12.4432C154.039 10.5868 153.867 9.23206 153.52 8.1993C153.178 7.16655 152.705 6.43484 152.107 6C151.509 5.56516 150.803 5.34773 149.996 5.34773C149.067 5.34773 148.214 5.49826 147.437 5.79512C146.659 6.09617 145.998 6.39303 145.459 6.69408V18.1463C146.057 18.5059 146.764 18.7902 147.571 18.9993C148.378 19.2084 149.189 19.3129 149.996 19.3129Z" fill="#0A263D"/>
</g>
<g clip-path="url(#clip2_1940_1568)">
<path d="M0 24.5854V0H24.6339V6.27178L18.3497 12.2927L24.6339 18.3136V24.5854H0Z" fill="#F7601A"/>
</g>
<path d="M116.572 43.0159L116.125 42.0244H116.508C116.593 41.5909 116.758 41.2515 117.003 41.0063C117.252 40.7575 117.601 40.6331 118.052 40.6331C118.13 40.6331 118.201 40.6385 118.265 40.6491C118.332 40.6598 118.396 40.6722 118.457 40.6864L118.537 42.3336C118.462 42.3123 118.375 42.298 118.276 42.2909C118.176 42.2803 118.075 42.2749 117.972 42.2749C117.624 42.2749 117.332 42.3407 117.094 42.4722C116.856 42.6001 116.682 42.7814 116.572 43.0159ZM114.975 45.9584V40.7184H116.508L116.439 42.3922L116.604 42.4135V45.9584H114.975Z" fill="#6C7883"/>
<path d="M112.139 46.0917C111.188 46.0917 110.485 45.8802 110.031 45.4573C109.577 45.0309 109.349 44.4107 109.349 43.5969V43.0532C109.349 42.2501 109.562 41.6353 109.988 41.2088C110.414 40.7788 111.034 40.5638 111.847 40.5638C112.393 40.5638 112.847 40.658 113.21 40.8463C113.575 41.0311 113.848 41.2959 114.029 41.6406C114.214 41.9853 114.306 42.3993 114.306 42.8826V43.0585C114.306 43.1936 114.299 43.3322 114.285 43.4743C114.274 43.6129 114.258 43.7426 114.237 43.8635H112.768C112.782 43.6574 112.791 43.4637 112.794 43.2824C112.798 43.0976 112.8 42.9306 112.8 42.7814C112.8 42.5646 112.766 42.3833 112.698 42.2376C112.631 42.0884 112.526 41.9747 112.384 41.8965C112.246 41.8183 112.067 41.7792 111.847 41.7792C111.52 41.7792 111.28 41.868 111.128 42.0457C110.979 42.2199 110.904 42.4686 110.904 42.792V43.2718L110.915 43.4477V43.8208C110.915 43.9559 110.936 44.0838 110.979 44.2046C111.025 44.3255 111.103 44.4321 111.213 44.5245C111.327 44.6133 111.481 44.6844 111.676 44.7377C111.875 44.7874 112.127 44.8123 112.432 44.8123C112.755 44.8123 113.066 44.7821 113.364 44.7217C113.662 44.6577 113.948 44.5724 114.221 44.4658L114.088 45.6919C113.847 45.8162 113.561 45.914 113.231 45.985C112.901 46.0561 112.537 46.0917 112.139 46.0917ZM110.212 43.8635V42.856H113.907V43.8635H110.212Z" fill="#6C7883"/>
<path d="M107.035 45.9584V40.7184H108.664V45.9584H107.035ZM107.85 40.2227C107.544 40.2227 107.323 40.1534 107.184 40.0148C107.046 39.8726 106.976 39.6825 106.976 39.4444V39.4071C106.976 39.169 107.046 38.9806 107.184 38.842C107.323 38.7035 107.544 38.6342 107.85 38.6342C108.148 38.6342 108.366 38.7035 108.504 38.842C108.646 38.9806 108.717 39.169 108.717 39.4071V39.4444C108.717 39.6861 108.646 39.8762 108.504 40.0148C108.366 40.1534 108.148 40.2227 107.85 40.2227Z" fill="#6C7883"/>
<path d="M104.146 46.0863C103.731 46.0863 103.356 46.049 103.023 45.9744C102.689 45.9033 102.403 45.8198 102.165 45.7239L102.027 44.3539C102.3 44.4676 102.602 44.5707 102.932 44.6631C103.266 44.7519 103.626 44.7963 104.013 44.7963C104.322 44.7963 104.54 44.7643 104.668 44.7004C104.799 44.6329 104.865 44.5298 104.865 44.3912V44.3699C104.865 44.2739 104.831 44.1958 104.764 44.1353C104.7 44.0714 104.586 44.0145 104.423 43.9648C104.263 43.915 104.038 43.8564 103.747 43.7889C103.31 43.6858 102.964 43.565 102.708 43.4264C102.453 43.2842 102.27 43.1119 102.16 42.9093C102.054 42.7032 102 42.4598 102 42.179V42.1364C102 41.6175 102.185 41.2302 102.554 40.9743C102.923 40.7149 103.466 40.5852 104.183 40.5852C104.588 40.5852 104.952 40.6225 105.275 40.6971C105.598 40.7717 105.869 40.8606 106.089 40.9636L106.228 42.2376C105.972 42.1239 105.686 42.0298 105.37 41.9551C105.058 41.8805 104.73 41.8432 104.385 41.8432C104.176 41.8432 104.011 41.8574 103.89 41.8858C103.773 41.9143 103.69 41.9551 103.64 42.0084C103.594 42.0617 103.571 42.1275 103.571 42.2057V42.2217C103.571 42.3069 103.599 42.3798 103.656 42.4402C103.713 42.5006 103.816 42.5575 103.965 42.6108C104.118 42.6641 104.336 42.7245 104.62 42.792C105.06 42.888 105.415 42.9981 105.685 43.1225C105.954 43.2434 106.151 43.4015 106.276 43.5969C106.4 43.7889 106.462 44.0447 106.462 44.3646V44.4125C106.462 44.9776 106.272 45.3987 105.892 45.6759C105.512 45.9495 104.93 46.0863 104.146 46.0863Z" fill="#6C7883"/>
<path d="M99.888 45.9584L99.9359 44.6471L99.8986 44.5671V42.9306L99.888 42.7174C99.888 42.426 99.8028 42.211 99.6324 42.0724C99.4621 41.9338 99.1763 41.8645 98.7752 41.8645C98.4238 41.8645 98.0902 41.9089 97.7743 41.9978C97.4584 42.0866 97.1602 42.1879 96.8798 42.3016L97.0183 41.0383C97.1851 40.9601 97.3714 40.8872 97.5773 40.8197C97.7867 40.7486 98.0174 40.6918 98.2694 40.6491C98.5215 40.6065 98.7912 40.5852 99.0787 40.5852C99.5366 40.5852 99.9199 40.6385 100.229 40.7451C100.538 40.8517 100.784 41.0027 100.969 41.1982C101.153 41.3936 101.286 41.6282 101.368 41.9018C101.45 42.1719 101.491 42.4704 101.491 42.7974V45.9584H99.888ZM98.2215 46.081C97.6998 46.081 97.304 45.9495 97.0342 45.6865C96.7645 45.4236 96.6296 45.0486 96.6296 44.5618V44.4179C96.6296 43.9026 96.7876 43.5223 97.1035 43.2771C97.4229 43.0284 97.9287 42.8595 98.6208 42.7707L100.026 42.5841L100.122 43.565L98.8764 43.7462C98.6244 43.7782 98.4469 43.8368 98.344 43.9221C98.2411 44.0074 98.1896 44.1336 98.1896 44.3006V44.3379C98.1896 44.4978 98.2411 44.6258 98.344 44.7217C98.4469 44.8141 98.612 44.8603 98.8391 44.8603C99.0379 44.8603 99.2083 44.8301 99.3503 44.7697C99.4958 44.7093 99.6147 44.6311 99.707 44.5351C99.7993 44.4356 99.8685 44.3255 99.9146 44.2046L100.144 44.8656H99.8773C99.8205 45.0931 99.7318 45.2992 99.6111 45.484C99.494 45.6688 99.3236 45.8145 99.1 45.9211C98.8764 46.0277 98.5836 46.081 98.2215 46.081Z" fill="#6C7883"/>
<path d="M94.0863 46.0917C93.1351 46.0917 92.4323 45.8802 91.978 45.4573C91.5236 45.0309 91.2965 44.4107 91.2965 43.5969V43.0532C91.2965 42.2501 91.5094 41.6353 91.9354 41.2088C92.3613 40.7788 92.9807 40.5638 93.7935 40.5638C94.3401 40.5638 94.7945 40.658 95.1565 40.8463C95.5221 41.0311 95.7954 41.2959 95.9764 41.6406C96.161 41.9853 96.2533 42.3993 96.2533 42.8826V43.0585C96.2533 43.1936 96.2462 43.3322 96.232 43.4743C96.2213 43.6129 96.2054 43.7426 96.1841 43.8635H94.7146C94.7288 43.6574 94.7377 43.4637 94.7412 43.2824C94.7448 43.0976 94.7465 42.9306 94.7465 42.7814C94.7465 42.5646 94.7128 42.3833 94.6454 42.2376C94.5779 42.0884 94.4732 41.9747 94.3312 41.8965C94.1928 41.8183 94.0136 41.7792 93.7935 41.7792C93.467 41.7792 93.2274 41.868 93.0747 42.0457C92.9257 42.2199 92.8511 42.4686 92.8511 42.792V43.2718L92.8618 43.4477V43.8208C92.8618 43.9559 92.8831 44.0838 92.9257 44.2046C92.9718 44.3255 93.0499 44.4321 93.1599 44.5245C93.2735 44.6133 93.4279 44.6844 93.6231 44.7377C93.8219 44.7874 94.0739 44.8123 94.3792 44.8123C94.7022 44.8123 95.0127 44.7821 95.3109 44.7217C95.609 44.6577 95.8948 44.5724 96.1681 44.4658L96.035 45.6919C95.7936 45.8162 95.5079 45.914 95.1778 45.985C94.8477 46.0561 94.4839 46.0917 94.0863 46.0917ZM92.159 43.8635V42.856H95.854V43.8635H92.159Z" fill="#6C7883"/>
<path d="M87.7079 45.9584L86.1639 43.6982H85.738V42.7387H86.1639L87.6653 40.7184H89.5341L87.5429 43.3198V43.0106L89.6087 45.9584H87.7079ZM84.375 45.9584V38.9167H85.9936V45.9584H84.375Z" fill="#6C7883"/>
<path d="M81.9633 43.0159L81.5161 42.0244H81.8994C81.9846 41.5909 82.1497 41.2515 82.3946 41.0063C82.6431 40.7575 82.9927 40.6331 83.4435 40.6331C83.5215 40.6331 83.5925 40.6385 83.6564 40.6491C83.7239 40.6598 83.7877 40.6722 83.8481 40.6864L83.9279 42.3336C83.8534 42.3123 83.7664 42.298 83.6671 42.2909C83.5677 42.2803 83.4665 42.2749 83.3636 42.2749C83.0157 42.2749 82.7229 42.3407 82.4851 42.4722C82.2473 42.6001 82.0734 42.7814 81.9633 43.0159ZM80.3661 45.9584V40.7184H81.8994L81.8302 42.3922L81.9953 42.4135V45.9584H80.3661Z" fill="#6C7883"/>
<path d="M77.125 46.1077C76.2803 46.1077 75.6414 45.898 75.2083 45.4786C74.7788 45.0557 74.5641 44.4623 74.5641 43.6982V43.0106C74.5641 42.2359 74.7806 41.6353 75.2136 41.2088C75.6467 40.7788 76.2838 40.5638 77.125 40.5638C77.9662 40.5638 78.6016 40.7788 79.0311 41.2088C79.4641 41.6353 79.6806 42.2359 79.6806 43.0106V43.6982C79.6806 44.4623 79.4659 45.0557 79.0364 45.4786C78.6069 45.898 77.9698 46.1077 77.125 46.1077ZM77.125 44.823C77.4267 44.823 77.6557 44.7324 77.8118 44.5511C77.9715 44.3663 78.0514 44.1051 78.0514 43.7675V42.9413C78.0514 42.5859 77.9715 42.3158 77.8118 42.131C77.6557 41.9462 77.4267 41.8538 77.125 41.8538C76.8233 41.8538 76.5926 41.9462 76.4329 42.131C76.2767 42.3158 76.1986 42.5859 76.1986 42.9413V43.7675C76.1986 44.1051 76.2767 44.3663 76.4329 44.5511C76.5926 44.7324 76.8233 44.823 77.125 44.823Z" fill="#6C7883"/>
<path d="M67.3875 45.9584L66.3387 40.7184H67.9892L68.6387 44.807H68.7346L69.3735 40.8464H71.3647L72.0142 44.807H72.1047L72.7596 40.7184H74.3941L73.3453 45.9584H71.0293L70.5022 42.6214L70.4117 42.0351H70.3371L70.2413 42.6214L69.7142 45.9584H67.3875Z" fill="#6C7883"/>
<path d="M62.0814 44.3272C61.2402 44.3272 60.6084 44.1709 60.186 43.8581C59.7636 43.5454 59.5524 43.1065 59.5524 42.5415V42.4722C59.5524 42.0884 59.6376 41.765 59.808 41.502C59.9819 41.2355 60.2481 41.0294 60.6066 40.8837C60.9651 40.738 61.4247 40.6509 61.9855 40.6225L64.7807 40.4945V41.6459L63.3911 41.6086V41.6619C63.6289 41.701 63.8241 41.7686 63.9768 41.8645C64.1329 41.9569 64.2483 42.0795 64.3228 42.2323C64.4009 42.3816 64.44 42.5664 64.44 42.7867V42.824C64.44 43.3109 64.2465 43.684 63.8596 43.9434C63.4763 44.1993 62.8835 44.3272 62.0814 44.3272ZM62.0015 46.806H62.1612C62.4168 46.806 62.6227 46.79 62.7788 46.758C62.9386 46.726 63.0557 46.678 63.1302 46.6141C63.2048 46.5501 63.242 46.4701 63.242 46.3742V46.3635C63.242 46.2391 63.1888 46.1503 63.0823 46.097C62.9794 46.0437 62.8232 46.0082 62.6138 45.9904L61.0698 45.8358L61.4265 45.8145C61.32 45.8322 61.2277 45.8625 61.1496 45.9051C61.0751 45.9477 61.0148 46.001 60.9686 46.065C60.926 46.129 60.9047 46.2072 60.9047 46.2996V46.3102C60.9047 46.4168 60.9438 46.5075 61.0219 46.5821C61.0999 46.6567 61.2189 46.7118 61.3786 46.7473C61.5419 46.7864 61.7495 46.806 62.0015 46.806ZM61.9216 48C61.3963 48 60.9473 47.9574 60.5746 47.8721C60.2055 47.7903 59.9251 47.6589 59.7334 47.4776C59.5417 47.2964 59.4459 47.0565 59.4459 46.758V46.7367C59.4459 46.5341 59.4903 46.3635 59.579 46.2249C59.6677 46.0863 59.7955 45.9779 59.9624 45.8998C60.1292 45.8216 60.3244 45.7736 60.548 45.7558V45.7025C60.2747 45.6528 60.0635 45.5657 59.9144 45.4413C59.7689 45.317 59.6961 45.1428 59.6961 44.9189V44.9136C59.6961 44.7537 59.7316 44.6186 59.8026 44.5085C59.8772 44.3983 59.9854 44.3148 60.1274 44.2579C60.2694 44.1975 60.4433 44.162 60.6492 44.1513V43.9754L61.8524 44.2793L61.501 44.2739C61.3768 44.2739 61.2881 44.2899 61.2348 44.3219C61.1851 44.3539 61.1603 44.4019 61.1603 44.4658V44.4712C61.1603 44.5493 61.2011 44.6062 61.2827 44.6417C61.3679 44.6737 61.5046 44.7004 61.6927 44.7217L62.9332 44.8656C63.5366 44.9367 63.9856 45.086 64.2802 45.3134C64.5748 45.5408 64.7221 45.8927 64.7221 46.3689V46.4008C64.7221 46.7633 64.6192 47.0618 64.4133 47.2964C64.211 47.5345 63.9164 47.7104 63.5295 47.8241C63.1462 47.9414 62.6777 48 62.124 48H61.9216ZM62.0281 43.2291C62.2375 43.2291 62.4097 43.2025 62.5446 43.1492C62.683 43.0923 62.7859 43.0106 62.8534 42.904C62.9244 42.7938 62.9599 42.6623 62.9599 42.5095V42.4615C62.9599 42.3087 62.9261 42.179 62.8587 42.0724C62.7913 41.9658 62.6883 41.8858 62.5499 41.8325C62.415 41.7757 62.2411 41.7472 62.0281 41.7472H62.0228C61.8063 41.7472 61.6288 41.7757 61.4904 41.8325C61.352 41.8894 61.249 41.9711 61.1816 42.0777C61.1177 42.1843 61.0857 42.314 61.0857 42.4669V42.5095C61.0857 42.6623 61.1195 42.7938 61.1869 42.904C61.2579 43.0106 61.3626 43.0923 61.501 43.1492C61.6395 43.2025 61.8152 43.2291 62.0281 43.2291Z" fill="#6C7883"/>
<path d="M57.3119 45.9584V42.8773C57.3119 42.6854 57.2871 42.5202 57.2374 42.3816C57.1877 42.2394 57.1043 42.131 56.9872 42.0564C56.87 41.9818 56.7103 41.9445 56.508 41.9445C56.3412 41.9445 56.1939 41.9747 56.0661 42.0351C55.9383 42.0919 55.83 42.1719 55.7413 42.275C55.6561 42.3745 55.5922 42.4882 55.5496 42.6161L55.2994 41.8538H55.5763C55.633 41.6157 55.7253 41.4025 55.8531 41.2142C55.9844 41.0258 56.1637 40.8766 56.3909 40.7664C56.618 40.6527 56.9055 40.5958 57.2534 40.5958C57.6438 40.5958 57.9632 40.6722 58.2117 40.825C58.4602 40.9743 58.643 41.1982 58.7601 41.4967C58.8808 41.7952 58.9411 42.1683 58.9411 42.6161V45.9584H57.3119ZM53.9471 45.9584V40.7184H55.5656L55.5124 42.0298L55.5763 42.1843V45.9584H53.9471Z" fill="#6C7883"/>
<path d="M51.4409 45.9584V40.7184H53.0701V45.9584H51.4409ZM52.2555 40.2227C51.9502 40.2227 51.7284 40.1534 51.59 40.0148C51.4515 39.8726 51.3823 39.6825 51.3823 39.4444V39.4071C51.3823 39.169 51.4515 38.9806 51.59 38.842C51.7284 38.7035 51.9502 38.6342 52.2555 38.6342C52.5536 38.6342 52.7719 38.7035 52.9104 38.842C53.0523 38.9806 53.1233 39.169 53.1233 39.4071V39.4444C53.1233 39.6861 53.0523 39.8762 52.9104 40.0148C52.7719 40.1534 52.5536 40.2227 52.2555 40.2227Z" fill="#6C7883"/>
<path d="M49.2101 45.9584L47.6661 43.6982H47.2402V42.7387H47.6661L49.1675 40.7184H51.0363L49.0451 43.3198V43.0106L51.1109 45.9584H49.2101ZM45.8772 45.9584V38.9167H47.4958V45.9584H45.8772Z" fill="#6C7883"/>
<path d="M43.4724 45.9584L43.5203 44.6471L43.483 44.5671V42.9306L43.4724 42.7174C43.4724 42.426 43.3872 42.211 43.2168 42.0724C43.0464 41.9338 42.7607 41.8645 42.3596 41.8645C42.0082 41.8645 41.6746 41.9089 41.3587 41.9978C41.0428 42.0866 40.7446 42.1879 40.4642 42.3016L40.6027 41.0383C40.7695 40.9601 40.9558 40.8872 41.1617 40.8197C41.3711 40.7486 41.6018 40.6918 41.8538 40.6491C42.1058 40.6065 42.3756 40.5852 42.6631 40.5852C43.121 40.5852 43.5043 40.6385 43.8131 40.7451C44.1219 40.8517 44.3686 41.0027 44.5532 41.1982C44.7377 41.3936 44.8708 41.6282 44.9525 41.9018C45.0341 42.1719 45.0749 42.4704 45.0749 42.7974V45.9584H43.4724ZM41.8059 46.081C41.2841 46.081 40.8884 45.9495 40.6186 45.6865C40.3489 45.4236 40.214 45.0486 40.214 44.5618V44.4179C40.214 43.9026 40.3719 43.5223 40.6878 43.2771C41.0073 43.0284 41.5131 42.8595 42.2052 42.7707L43.6108 42.5841L43.7066 43.565L42.4608 43.7462C42.2088 43.7782 42.0313 43.8368 41.9284 43.9221C41.8254 44.0074 41.774 44.1336 41.774 44.3006V44.3379C41.774 44.4978 41.8254 44.6258 41.9284 44.7217C42.0313 44.8141 42.1963 44.8603 42.4235 44.8603C42.6223 44.8603 42.7927 44.8301 42.9346 44.7697C43.0802 44.7093 43.1991 44.6311 43.2913 44.5351C43.3836 44.4356 43.4528 44.3255 43.499 44.2046L43.7279 44.8656H43.4617C43.4049 45.0931 43.3162 45.2992 43.1955 45.484C43.0784 45.6688 42.908 45.8145 42.6844 45.9211C42.4608 46.0277 42.168 46.081 41.8059 46.081Z" fill="#6C7883"/>
<path d="M38.02 45.9584V42.8347C38.02 42.6499 37.9969 42.4917 37.9508 42.3602C37.9082 42.2252 37.8337 42.1221 37.7272 42.0511C37.6243 41.98 37.4805 41.9445 37.2959 41.9445C37.1398 41.9445 37.0031 41.9747 36.886 42.0351C36.7688 42.0919 36.6712 42.1719 36.5931 42.275C36.5151 42.3745 36.4565 42.4882 36.4174 42.6161L36.2631 41.8538H36.4068C36.4636 41.6193 36.5541 41.4078 36.6783 41.2195C36.8026 41.0276 36.9747 40.8766 37.1948 40.7664C37.4148 40.6527 37.697 40.5958 38.0413 40.5958C38.414 40.5958 38.7175 40.6704 38.9517 40.8197C39.1896 40.9654 39.3653 41.1857 39.4788 41.4807C39.5924 41.7721 39.6492 42.1364 39.6492 42.5735V45.9584H38.02ZM31.6097 45.9584V40.7184H33.2283L33.175 42.131L33.2389 42.1843V45.9584H31.6097ZM34.8149 45.9584V42.8347C34.8149 42.6499 34.7918 42.4917 34.7457 42.3602C34.7031 42.2252 34.6285 42.1221 34.5221 42.0511C34.4156 41.98 34.2718 41.9445 34.0908 41.9445C33.9311 41.9445 33.7926 41.9747 33.6755 42.0351C33.5584 42.0919 33.4608 42.1719 33.3827 42.275C33.3081 42.3745 33.2514 42.4882 33.2123 42.6161L32.9621 41.8538H33.2389C33.2922 41.6157 33.3791 41.4025 33.4998 41.2142C33.624 41.0258 33.7944 40.8766 34.0109 40.7664C34.2274 40.6527 34.5008 40.5958 34.8309 40.5958C35.3171 40.5958 35.6827 40.722 35.9276 40.9743C36.1761 41.223 36.3323 41.5855 36.3962 42.0617C36.4068 42.1328 36.4175 42.2199 36.4281 42.3229C36.4387 42.426 36.4441 42.5184 36.4441 42.6001V45.9584H34.8149Z" fill="#6C7883"/>
</g>
<defs>
<clipPath id="clip0_1940_1568">
<rect width="161" height="48" fill="white"/>
</clipPath>
<clipPath id="clip1_1940_1568">
<rect width="129.073" height="35.122" fill="white" transform="translate(31.6097)"/>
</clipPath>
<clipPath id="clip2_1940_1568">
<rect width="24.6339" height="24.5854" fill="white"/>
</clipPath>
</defs>
</svg>
