<svg width="167" height="24" viewBox="0 0 167 24" fill="none" xmlns="http://www.w3.org/2000/svg">
<g clip-path="url(#clip0_2033_2088)">
<path d="M0 18V0H18.0541V4.59184L13.4484 9L18.0541 13.4082V18H0Z" fill="#F7601A"/>
</g>
<path d="M161.32 17.6334C161.45 15.5122 161.515 13.3182 161.515 11.0513C161.515 10.3226 161.328 9.75587 160.954 9.35106C160.597 8.93006 160.117 8.71956 159.516 8.71956C158.963 8.71956 158.484 8.96244 158.077 9.44821C157.687 9.93398 157.492 10.6384 157.492 11.5613V11.537C157.492 14.4031 157.533 16.4352 157.614 17.6334H152.129C152.227 15.2532 152.275 13.0591 152.275 11.0513C152.275 10.3388 152.097 9.77206 151.739 9.35106C151.398 8.93006 150.959 8.71956 150.423 8.71956C149.854 8.71956 149.374 8.96244 148.984 9.44821C148.61 9.91779 148.391 10.5655 148.326 11.3913C148.294 12.6219 148.277 13.4963 148.277 14.0145C148.277 15.1155 148.31 16.3219 148.375 17.6334H142.548C142.678 15.3017 142.743 13.0996 142.743 11.027C142.743 8.95435 142.678 6.736 142.548 4.37192C143.621 4.42049 144.442 4.44478 145.011 4.44478C145.612 4.44478 146.433 4.42049 147.473 4.37192L148.204 7.96662C148.578 6.65504 149.171 5.69159 149.984 5.07628C150.796 4.44478 151.731 4.12903 152.787 4.12903C154.055 4.12903 155.087 4.47716 155.883 5.17344C156.696 5.86971 157.2 6.77648 157.395 7.89375C157.769 6.74409 158.394 5.82923 159.272 5.14915C160.15 4.46907 161.149 4.12903 162.271 4.12903C163.733 4.12903 164.879 4.6229 165.708 5.61063C166.537 6.58217 166.951 7.91804 166.951 9.61823V13.6501C166.951 15.4799 166.967 16.8076 167 17.6334H161.32Z" fill="#0A263D"/>
<path d="M134.012 7.9667C134.695 5.52166 136.393 4.29913 139.107 4.29913C139.579 4.29913 140.034 4.33152 140.473 4.39629L139.692 9.83691C138.522 9.39972 137.563 9.18112 136.816 9.18112C135.889 9.18112 135.207 9.4564 134.768 10.0069C134.329 10.5575 134.11 11.2942 134.11 12.2172V12.1929L134.085 13.7959C134.085 14.9456 134.118 16.2248 134.183 17.6335H128.356C128.486 15.3018 128.551 13.0997 128.551 11.0271C128.551 8.95443 128.486 6.73608 128.356 4.372C129.429 4.42058 130.25 4.44486 130.819 4.44486C131.42 4.44486 132.241 4.42058 133.281 4.372L134.012 7.9667Z" fill="#0A263D"/>
<path d="M118.256 17.8763C115.477 17.8763 113.429 17.2448 112.112 15.9818C110.812 14.7026 110.162 13.0267 110.162 10.9541C110.162 8.93006 110.812 7.28654 112.112 6.02353C113.429 4.76053 115.477 4.12903 118.256 4.12903C120.125 4.12903 121.685 4.43668 122.936 5.05199C124.204 5.65111 125.139 6.46882 125.74 7.50513C126.341 8.52525 126.642 9.67491 126.642 10.9541C126.642 13.0429 125.943 14.7188 124.545 15.9818C123.164 17.2448 121.067 17.8763 118.256 17.8763ZM118.353 13.7473C119.41 13.7473 120.198 13.4963 120.718 12.9943C121.238 12.4924 121.498 11.8204 121.498 10.9784C121.498 10.185 121.238 9.53727 120.718 9.03531C120.198 8.51715 119.41 8.25808 118.353 8.25808C117.297 8.25808 116.525 8.50906 116.037 9.01102C115.55 9.51298 115.306 10.1688 115.306 10.9784C115.306 11.8204 115.55 12.4924 116.037 12.9943C116.525 13.4963 117.297 13.7473 118.353 13.7473Z" fill="#0A263D"/>
<path d="M108.447 4.54195H95.185V7.09225C96.0138 7.10844 97.2571 7.11653 98.9149 7.11653C101.775 7.11653 104.684 7.06796 107.642 6.9708V11.7314C104.684 11.618 101.564 11.5613 98.281 11.5613C96.9158 11.5613 95.8838 11.5694 95.185 11.5856V17.6335H89.4316C89.5617 14.4921 89.6267 11.5532 89.6267 8.81673C89.6267 6.08022 89.5617 3.14131 89.4316 0H108.447V4.54195Z" fill="#0A263D"/>
<path d="M83.5704 4.37201L83.0097 5.78074C81.4657 9.8774 79.8486 13.8283 78.1584 17.6335C77.2807 19.5766 76.013 21.1311 74.3553 22.2969C72.6976 23.479 70.6173 24.0457 68.1144 23.9971C67.8056 22.6532 67.5456 21.6007 67.3343 20.8396C67.1393 20.0948 66.8792 19.3418 66.5542 18.5808C67.4481 18.7913 68.2851 18.8965 69.0652 18.8965C70.3329 18.8965 71.3405 18.6294 72.0881 18.095C71.503 16.3624 70.8123 14.5003 70.0159 12.5087C69.2196 10.517 68.0657 7.80479 66.5542 4.37201H72.3319C72.5269 5.18163 72.7951 6.12078 73.1364 7.18948C73.4777 8.25817 73.819 9.28639 74.1603 10.2741C74.2578 10.5818 74.4122 11.0513 74.6235 11.6829C74.851 12.2982 75.0298 12.8163 75.1598 13.2373L75.7936 11.3185C77.0126 7.80479 77.7358 5.48928 77.9633 4.37201H83.5704Z" fill="#0A263D"/>
<path d="M65.0862 13.6015C65.0862 14.1521 65.1512 14.5407 65.2812 14.7674C65.4113 14.9941 65.6713 15.156 66.0613 15.2532L65.9638 17.5363C65.4438 17.6173 64.9887 17.6739 64.5986 17.7063C64.2248 17.7387 63.721 17.7549 63.0872 17.7549C61.6895 17.7549 60.7631 17.4472 60.308 16.8319C59.853 16.2004 59.6254 15.3989 59.6254 14.4274V13.8201C59.1541 15.1479 58.4634 16.1357 57.5533 16.7833C56.6594 17.431 55.5136 17.7549 54.1159 17.7549C52.4907 17.7549 51.2636 17.431 50.4347 16.7833C49.6221 16.1357 49.2158 15.1722 49.2158 13.893C49.2158 12.8405 49.5652 12.0147 50.2641 11.4156C50.9629 10.8165 52.0437 10.4036 53.5064 10.1769C52.2713 9.30248 51.0361 8.54144 49.8009 7.89375C50.776 6.66313 51.8893 5.73207 53.1408 5.10057C54.3922 4.45288 55.9118 4.12903 57.6995 4.12903C60.2024 4.12903 62.0552 4.67147 63.2578 5.75636C64.4767 6.82506 65.0862 8.47667 65.0862 10.7112V13.6015ZM58.2115 8.40381C57.3826 8.40381 56.6513 8.54144 56.0174 8.81671C55.3836 9.09198 54.8147 9.50489 54.3109 10.0554C55.2861 9.94208 56.505 9.88541 57.9677 9.88541C58.569 9.88541 58.9916 9.81254 59.2354 9.66681C59.4792 9.52108 59.6011 9.33487 59.6011 9.10818C59.6011 8.91387 59.4792 8.75194 59.2354 8.6224C58.9916 8.47667 58.6503 8.40381 58.2115 8.40381ZM55.6517 13.7959C56.5619 13.7959 57.3826 13.6258 58.114 13.2858C58.8453 12.9296 59.3491 12.4681 59.6254 11.9014V11.2699C59.2354 11.4642 58.8047 11.618 58.3334 11.7313C57.8621 11.8285 57.2932 11.9256 56.6269 12.0228L55.7493 12.1685C54.8391 12.3466 54.3841 12.6543 54.3841 13.0915C54.3841 13.5611 54.8066 13.7959 55.6517 13.7959Z" fill="#0A263D"/>
<path d="M47.5102 0C47.3965 2.73651 47.3396 5.67542 47.3396 8.81673C47.3396 11.958 47.3965 14.897 47.5102 17.6335H41.7813V11.027H32.81V17.6335H27.0811C27.2111 14.4921 27.2761 11.5532 27.2761 8.81673C27.2761 6.08022 27.2111 3.14131 27.0811 0H32.81V6.60647H41.7813V0H47.5102Z" fill="#0A263D"/>
<defs>
<clipPath id="clip0_2033_2088">
<rect width="18.0541" height="18" fill="white"/>
</clipPath>
</defs>
</svg>
