<svg width="16" height="16" viewBox="0 0 16 16" fill="none" xmlns="http://www.w3.org/2000/svg">
<mask id="path-1-inside-1_1764_23540" fill="white">
<path fill-rule="evenodd" clip-rule="evenodd" d="M3.73379 5.33378C3.43924 5.33378 3.20046 5.57256 3.20046 5.86711V12.2672C3.20046 12.5617 3.43924 12.8005 3.73379 12.8005H12.2671C12.5616 12.8005 12.8005 12.5617 12.8005 12.2672V5.86711C12.8005 5.57256 12.5616 5.33378 12.2671 5.33378H10.9338C10.6392 5.33378 10.4005 5.09499 10.4005 4.80044C10.4005 4.50589 10.6392 4.26711 10.9338 4.26711H12.2671C13.1507 4.26711 13.8671 4.98345 13.8671 5.86711V12.2672C13.8671 13.1508 13.1507 13.8672 12.2671 13.8672H3.73379C2.85013 13.8672 2.13379 13.1508 2.13379 12.2672V5.86711C2.13379 4.98345 2.85013 4.26711 3.73379 4.26711H5.06712C5.36167 4.26711 5.60046 4.50589 5.60046 4.80044C5.60046 5.09499 5.36167 5.33378 5.06712 5.33378H3.73379ZM7.46712 1.74587L5.93987 3.27313C5.75241 3.46057 5.4485 3.46057 5.26104 3.27313C5.0736 3.08567 5.0736 2.78175 5.26104 2.5943L7.66104 0.194301C7.75106 0.104283 7.87315 0.0537109 8.00046 0.0537109C8.12776 0.0537109 8.24985 0.104283 8.33987 0.194301L10.7399 2.5943C10.9273 2.78175 10.9273 3.08567 10.7399 3.27313C10.5524 3.46057 10.2485 3.46057 10.061 3.27313L8.53379 1.74587V9.06705C8.53379 9.36159 8.29501 9.60038 8.00046 9.60038C7.70591 9.60038 7.46712 9.36159 7.46712 9.06705V1.74587Z"/>
</mask>
<path fill-rule="evenodd" clip-rule="evenodd" d="M3.73379 5.33378C3.43924 5.33378 3.20046 5.57256 3.20046 5.86711V12.2672C3.20046 12.5617 3.43924 12.8005 3.73379 12.8005H12.2671C12.5616 12.8005 12.8005 12.5617 12.8005 12.2672V5.86711C12.8005 5.57256 12.5616 5.33378 12.2671 5.33378H10.9338C10.6392 5.33378 10.4005 5.09499 10.4005 4.80044C10.4005 4.50589 10.6392 4.26711 10.9338 4.26711H12.2671C13.1507 4.26711 13.8671 4.98345 13.8671 5.86711V12.2672C13.8671 13.1508 13.1507 13.8672 12.2671 13.8672H3.73379C2.85013 13.8672 2.13379 13.1508 2.13379 12.2672V5.86711C2.13379 4.98345 2.85013 4.26711 3.73379 4.26711H5.06712C5.36167 4.26711 5.60046 4.50589 5.60046 4.80044C5.60046 5.09499 5.36167 5.33378 5.06712 5.33378H3.73379ZM7.46712 1.74587L5.93987 3.27313C5.75241 3.46057 5.4485 3.46057 5.26104 3.27313C5.0736 3.08567 5.0736 2.78175 5.26104 2.5943L7.66104 0.194301C7.75106 0.104283 7.87315 0.0537109 8.00046 0.0537109C8.12776 0.0537109 8.24985 0.104283 8.33987 0.194301L10.7399 2.5943C10.9273 2.78175 10.9273 3.08567 10.7399 3.27313C10.5524 3.46057 10.2485 3.46057 10.061 3.27313L8.53379 1.74587V9.06705C8.53379 9.36159 8.29501 9.60038 8.00046 9.60038C7.70591 9.60038 7.46712 9.36159 7.46712 9.06705V1.74587Z" fill="white"/>
<path d="M7.46712 1.74587H8.46712V-0.668342L6.76002 1.03877L7.46712 1.74587ZM5.93987 3.27313L6.64696 3.98025L6.64698 3.98023L5.93987 3.27313ZM5.26104 3.27313L4.55392 3.98021L4.55396 3.98025L5.26104 3.27313ZM5.26104 2.5943L4.55394 1.88719L4.55392 1.88721L5.26104 2.5943ZM7.66104 0.194301L8.36815 0.901408L8.36816 0.901399L7.66104 0.194301ZM8.33987 0.194301L7.63275 0.901399L7.63276 0.901408L8.33987 0.194301ZM10.7399 2.5943L11.4471 1.88727L11.447 1.88719L10.7399 2.5943ZM10.7399 3.27313L11.447 3.98025L11.4471 3.98015L10.7399 3.27313ZM10.061 3.27313L9.35394 3.98023L9.35396 3.98025L10.061 3.27313ZM8.53379 1.74587L9.2409 1.03877L7.53379 -0.668342V1.74587H8.53379ZM3.73379 4.33378C2.88696 4.33378 2.20046 5.02028 2.20046 5.86711H4.20046C4.20046 6.12484 3.99152 6.33378 3.73379 6.33378V4.33378ZM2.20046 5.86711V12.2672H4.20046V5.86711H2.20046ZM2.20046 12.2672C2.20046 13.1139 2.8869 13.8005 3.73379 13.8005V11.8005C3.99158 11.8005 4.20046 12.0094 4.20046 12.2672H2.20046ZM3.73379 13.8005H12.2671V11.8005H3.73379V13.8005ZM12.2671 13.8005C13.1139 13.8005 13.8005 13.1139 13.8005 12.2672H11.8005C11.8005 12.0094 12.0093 11.8005 12.2671 11.8005V13.8005ZM13.8005 12.2672V5.86711H11.8005V12.2672H13.8005ZM13.8005 5.86711C13.8005 5.02022 13.1139 4.33378 12.2671 4.33378V6.33378C12.0094 6.33378 11.8005 6.1249 11.8005 5.86711H13.8005ZM12.2671 4.33378H10.9338V6.33378H12.2671V4.33378ZM10.9338 4.33378C11.1915 4.33378 11.4005 4.54271 11.4005 4.80044H9.40046C9.40046 5.64728 10.087 6.33378 10.9338 6.33378V4.33378ZM11.4005 4.80044C11.4005 5.05818 11.1915 5.26711 10.9338 5.26711V3.26711C10.087 3.26711 9.40046 3.95361 9.40046 4.80044H11.4005ZM10.9338 5.26711H12.2671V3.26711H10.9338V5.26711ZM12.2671 5.26711C12.5985 5.26711 12.8671 5.53575 12.8671 5.86711H14.8671C14.8671 4.43115 13.703 3.26711 12.2671 3.26711V5.26711ZM12.8671 5.86711V12.2672H14.8671V5.86711H12.8671ZM12.8671 12.2672C12.8671 12.5985 12.5985 12.8672 12.2671 12.8672V14.8672C13.703 14.8672 14.8671 13.7031 14.8671 12.2672H12.8671ZM12.2671 12.8672H3.73379V14.8672H12.2671V12.8672ZM3.73379 12.8672C3.40243 12.8672 3.13379 12.5985 3.13379 12.2672H1.13379C1.13379 13.7031 2.29783 14.8672 3.73379 14.8672V12.8672ZM3.13379 12.2672V5.86711H1.13379V12.2672H3.13379ZM3.13379 5.86711C3.13379 5.53574 3.40241 5.26711 3.73379 5.26711V3.26711C2.29785 3.26711 1.13379 4.43117 1.13379 5.86711H3.13379ZM3.73379 5.26711H5.06712V3.26711H3.73379V5.26711ZM5.06712 5.26711C4.80939 5.26711 4.60046 5.05818 4.60046 4.80044H6.60046C6.60046 3.95361 5.91396 3.26711 5.06712 3.26711V5.26711ZM4.60046 4.80044C4.60046 4.54271 4.80939 4.33378 5.06712 4.33378V6.33378C5.91396 6.33378 6.60046 5.64728 6.60046 4.80044H4.60046ZM5.06712 4.33378H3.73379V6.33378H5.06712V4.33378ZM6.76002 1.03877L5.23276 2.56602L6.64698 3.98023L8.17423 2.45298L6.76002 1.03877ZM5.23278 2.566C5.43585 2.36295 5.76507 2.36295 5.96813 2.566L4.55396 3.98025C5.13193 4.5582 6.06898 4.5582 6.64696 3.98025L5.23278 2.566ZM5.96817 2.56604C6.17122 2.7691 6.17122 3.09832 5.96817 3.30139L4.55392 1.88721C3.97597 2.46519 3.97597 3.40224 4.55392 3.98021L5.96817 2.56604ZM5.96815 3.30141L8.36815 0.901408L6.95394 -0.512806L4.55394 1.88719L5.96815 3.30141ZM8.36816 0.901399C8.27063 0.998928 8.13836 1.05371 8.00046 1.05371V-0.946289C7.60794 -0.946289 7.23149 -0.790363 6.95393 -0.512798L8.36816 0.901399ZM8.00046 1.05371C7.86255 1.05371 7.73028 0.998928 7.63275 0.901399L9.04698 -0.512798C8.76943 -0.790363 8.39298 -0.946289 8.00046 -0.946289V1.05371ZM7.63276 0.901408L10.0328 3.30141L11.447 1.88719L9.04698 -0.512806L7.63276 0.901408ZM10.0327 3.30132C9.82968 3.09828 9.82968 2.76915 10.0327 2.5661L11.4471 3.98015C12.0249 3.40219 12.0249 2.46523 11.4471 1.88727L10.0327 3.30132ZM10.0328 2.566C10.2358 2.36295 10.5651 2.36295 10.7681 2.566L9.35396 3.98025C9.93193 4.5582 10.869 4.5582 11.447 3.98025L10.0328 2.566ZM10.7681 2.56602L9.2409 1.03877L7.82668 2.45298L9.35394 3.98023L10.7681 2.56602ZM7.53379 1.74587V9.06705H9.53379V1.74587H7.53379ZM7.53379 9.06705C7.53379 8.80931 7.74272 8.60038 8.00046 8.60038V10.6004C8.84729 10.6004 9.53379 9.91388 9.53379 9.06705H7.53379ZM8.00046 8.60038C8.25819 8.60038 8.46712 8.80931 8.46712 9.06705H6.46712C6.46712 9.91388 7.15362 10.6004 8.00046 10.6004V8.60038ZM8.46712 9.06705V1.74587H6.46712V9.06705H8.46712Z" fill="#09090B" fill-opacity="0.5" mask="url(#path-1-inside-1_1764_23540)"/>
</svg>
