<svg width="16" height="16" viewBox="0 0 16 16" fill="none" xmlns="http://www.w3.org/2000/svg">
<path fill-rule="evenodd" clip-rule="evenodd" d="M6.93333 1.06689C6.63878 1.06689 6.4 1.30568 6.4 1.60023C6.4 1.89478 6.63878 2.13356 6.93333 2.13356C7.60182 2.13356 7.95433 2.34719 8.16601 2.64356C8.40331 2.97577 8.53333 3.50782 8.53333 4.26689V11.7336C8.53333 12.4926 8.40331 13.0247 8.16601 13.3569C7.95433 13.6532 7.60182 13.8669 6.93333 13.8669C6.63878 13.8669 6.4 14.1057 6.4 14.4002C6.4 14.6947 6.63878 14.9336 6.93333 14.9336C7.86484 14.9336 8.57901 14.6139 9.03399 13.9769C9.04508 13.9614 9.05597 13.9457 9.06667 13.9299C9.07737 13.9457 9.08826 13.9614 9.09934 13.9769C9.55433 14.6139 10.2685 14.9336 11.2 14.9336C11.4945 14.9336 11.7333 14.6947 11.7333 14.4002C11.7333 14.1057 11.4945 13.8669 11.2 13.8669C10.5315 13.8669 10.179 13.6532 9.96733 13.3569C9.73003 13.0247 9.6 12.4926 9.6 11.7336V4.26689C9.6 3.50782 9.73003 2.97577 9.96733 2.64356C10.179 2.34719 10.5315 2.13356 11.2 2.13356C11.4945 2.13356 11.7333 1.89478 11.7333 1.60023C11.7333 1.30568 11.4945 1.06689 11.2 1.06689C10.2685 1.06689 9.55433 1.3866 9.09934 2.02357C9.08826 2.03909 9.07737 2.05475 9.06667 2.07052C9.05597 2.05475 9.04508 2.03909 9.03399 2.02357C8.57901 1.3866 7.86484 1.06689 6.93333 1.06689ZM14.9333 5.33356H11.7333V4.26689H14.9333C15.5225 4.26689 16 4.74446 16 5.33356V10.6669C16 11.256 15.5225 11.7336 14.9333 11.7336H11.7333V10.6669H14.9333V5.33356ZM6.4 4.26689V5.33356H1.06667V10.6669H6.4V11.7336H1.06667C0.477563 11.7336 0 11.256 0 10.6669V5.33356C0 4.74446 0.477563 4.26689 1.06667 4.26689H6.4Z" fill="#F4F4F5"/>
<path d="M9.50624 2.31413C9.84683 1.83736 10.3911 1.56689 11.2 1.56689C11.2184 1.56689 11.2333 1.58185 11.2333 1.60023C11.2333 1.61861 11.2184 1.63356 11.2 1.63356C10.4069 1.63356 9.88555 1.8978 9.56046 2.35294C9.23312 2.81121 9.1 3.46948 9.1 4.26689V11.7336C9.1 12.531 9.23313 13.1892 9.56044 13.6475L9.56048 13.6476C9.88556 14.1026 10.4069 14.3669 11.2 14.3669C11.2184 14.3669 11.2333 14.3819 11.2333 14.4002C11.2333 14.4186 11.2184 14.4336 11.2 14.4336C10.391 14.4336 9.84679 14.1631 9.50621 13.6863L9.50577 13.6856C9.49753 13.6741 9.48914 13.6621 9.48057 13.6494L9.06669 13.0387L8.65277 13.6494C8.6442 13.6621 8.6358 13.6741 8.62756 13.6856L8.62712 13.6863C8.28654 14.1631 7.7423 14.4336 6.93333 14.4336C6.91495 14.4336 6.9 14.4186 6.9 14.4002C6.9 14.3818 6.91495 14.3669 6.93333 14.3669C7.72645 14.3669 8.24778 14.1026 8.57286 13.6476L8.57289 13.6475C8.90021 13.1892 9.03333 12.531 9.03333 11.7336V4.26689C9.03333 3.46948 8.90022 2.81121 8.57288 2.35294C8.24779 1.8978 7.72644 1.63356 6.93333 1.63356C6.91493 1.63356 6.9 1.61863 6.9 1.60023C6.9 1.58182 6.91493 1.56689 6.93333 1.56689C7.74226 1.56689 8.2865 1.83736 8.62709 2.31413C8.63577 2.32629 8.64436 2.33864 8.65286 2.35117L9.06669 2.96135L9.48049 2.35115L9.50624 2.31413ZM8.65276 14.2104C8.66556 14.2293 8.67891 14.2486 8.69279 14.2679L9.48056 14.2105L9.11715 13.9641L9.11712 13.9641L9.06667 13.9299L9.01621 13.9641L9.01618 13.9641L8.65276 14.2104ZM15.4333 5.33356V5.06666C15.4759 5.14619 15.5 5.23706 15.5 5.33356V10.6669C15.5 10.7634 15.4759 10.8543 15.4333 10.9338V10.6669V5.33356ZM14.9333 4.76689C15.0298 4.76689 15.1207 4.79102 15.2002 4.83356H14.9333H12.2333V4.76689H14.9333ZM14.9333 11.1669H15.2003C15.1207 11.2094 15.0298 11.2336 14.9333 11.2336H12.2333V11.1669H14.9333ZM5.9 4.83356H1.06667H0.799765C0.879298 4.79102 0.970165 4.76689 1.06667 4.76689H5.9V4.83356ZM0.566667 5.06666V5.33356V10.6669V10.9338C0.524122 10.8543 0.5 10.7634 0.5 10.6669V5.33356C0.5 5.23706 0.524123 5.14619 0.566667 5.06666ZM1.06667 11.2336C0.970161 11.2336 0.879291 11.2094 0.799757 11.1669H1.06667H5.9V11.2336H1.06667Z" stroke="#18181B" stroke-opacity="0.5"/>
</svg>
