<svg width="16" height="16" viewBox="0 0 16 16" fill="none" xmlns="http://www.w3.org/2000/svg">
<path fill-rule="evenodd" clip-rule="evenodd" d="M4.9332 10.1335C4.9332 9.47075 4.39594 8.9335 3.7332 8.9335C3.07046 8.9335 2.5332 9.47075 2.5332 10.1335C2.5332 10.7962 3.07046 11.3335 3.7332 11.3335C4.39594 11.3335 4.9332 10.7962 4.9332 10.1335ZM4.9332 5.86683C4.9332 5.20411 4.39594 4.66683 3.7332 4.66683C3.07046 4.66683 2.5332 5.20411 2.5332 5.86683C2.5332 6.52957 3.07046 7.06683 3.7332 7.06683C4.39594 7.06683 4.9332 6.52957 4.9332 5.86683ZM7.99987 4.66683C8.66261 4.66683 9.19987 5.20411 9.19987 5.86683C9.19987 6.52957 8.66261 7.06683 7.99987 7.06683C7.33713 7.06683 6.79987 6.52957 6.79987 5.86683C6.79987 5.20411 7.33713 4.66683 7.99987 4.66683ZM9.19987 10.1335C9.19987 9.47075 8.66261 8.9335 7.99987 8.9335C7.33713 8.9335 6.79987 9.47075 6.79987 10.1335C6.79987 10.7962 7.33713 11.3335 7.99987 11.3335C8.66261 11.3335 9.19987 10.7962 9.19987 10.1335ZM12.2665 4.66683C12.9293 4.66683 13.4665 5.20411 13.4665 5.86683C13.4665 6.52957 12.9293 7.06683 12.2665 7.06683C11.6038 7.06683 11.0665 6.52957 11.0665 5.86683C11.0665 5.20411 11.6038 4.66683 12.2665 4.66683ZM13.4665 10.1335C13.4665 9.47075 12.9293 8.9335 12.2665 8.9335C11.6038 8.9335 11.0665 9.47075 11.0665 10.1335C11.0665 10.7962 11.6038 11.3335 12.2665 11.3335C12.9293 11.3335 13.4665 10.7962 13.4665 10.1335Z" fill="#18181B" fill-opacity="0.2"/>
</svg>
