<svg width="16" height="16" viewBox="0 0 16 16" fill="none" xmlns="http://www.w3.org/2000/svg">
<path d="M12.6667 2H3.33333C2.59695 2 2 2.59695 2 3.33333V12.6667C2 13.403 2.59695 14 3.33333 14H12.6667C13.403 14 14 13.403 14 12.6667V3.33333C14 2.59695 13.403 2 12.6667 2Z" fill="#F4F4F5"/>
<path d="M10.6667 6.66667L8 9.33333L5.33333 6.66667" fill="#F4F4F5"/>
<path d="M10.6667 6.66667L8 9.33333L5.33333 6.66667M3.33333 2H12.6667C13.403 2 14 2.59695 14 3.33333V12.6667C14 13.403 13.403 14 12.6667 14H3.33333C2.59695 14 2 13.403 2 12.6667V3.33333C2 2.59695 2.59695 2 3.33333 2Z" stroke="#18181B" stroke-opacity="0.5" stroke-linecap="round" stroke-linejoin="round"/>
</svg>
