<svg width="167" height="24" viewBox="0 0 167 24" fill="none" xmlns="http://www.w3.org/2000/svg">
<g clip-path="url(#clip0_3431_2377)">
<mask id="mask0_3431_2377" style="mask-type:luminance" maskUnits="userSpaceOnUse" x="0" y="0" width="19" height="18">
<path d="M18.0541 0H0V18H18.0541V0Z" fill="white"/>
</mask>
<g mask="url(#mask0_3431_2377)">
<path d="M0 18V0H18.0541V4.59184L13.4484 9L18.0541 13.4082V18H0Z" fill="#F7601A"/>
</g>
<path d="M161.319 17.6333C161.449 15.5121 161.514 13.3181 161.514 11.0512C161.514 10.3225 161.327 9.75575 160.953 9.35094C160.596 8.92994 160.116 8.71944 159.515 8.71944C158.962 8.71944 158.483 8.96232 158.076 9.44809C157.686 9.93386 157.491 10.6383 157.491 11.5612V11.5369C157.491 14.403 157.532 16.4351 157.613 17.6333H152.128C152.226 15.2531 152.274 13.059 152.274 11.0512C152.274 10.3387 152.096 9.77194 151.738 9.35094C151.397 8.92994 150.958 8.71944 150.422 8.71944C149.853 8.71944 149.373 8.96232 148.983 9.44809C148.609 9.91767 148.39 10.5654 148.325 11.3912C148.293 12.6218 148.276 13.4962 148.276 14.0144C148.276 15.1154 148.309 16.3218 148.374 17.6333H142.547C142.677 15.3016 142.742 13.0995 142.742 11.0269C142.742 8.95423 142.677 6.73588 142.547 4.3718C143.62 4.42037 144.441 4.44466 145.01 4.44466C145.611 4.44466 146.432 4.42037 147.472 4.3718L148.203 7.9665C148.577 6.65492 149.17 5.69147 149.983 5.07616C150.795 4.44466 151.73 4.12891 152.786 4.12891C154.054 4.12891 155.086 4.47704 155.882 5.17332C156.695 5.86959 157.199 6.77636 157.394 7.89363C157.768 6.74397 158.393 5.82911 159.271 5.14903C160.149 4.46895 161.148 4.12891 162.27 4.12891C163.732 4.12891 164.878 4.62278 165.707 5.61051C166.536 6.58205 166.95 7.91792 166.95 9.61811V13.65C166.95 15.4798 166.966 16.8075 166.999 17.6333H161.319Z" fill="#0A263D"/>
<path d="M134.012 7.9666C134.695 5.52156 136.393 4.29903 139.107 4.29903C139.579 4.29903 140.034 4.33142 140.473 4.39619L139.692 9.83681C138.522 9.39962 137.563 9.18102 136.816 9.18102C135.889 9.18102 135.207 9.4563 134.768 10.0068C134.329 10.5574 134.11 11.2941 134.11 12.2171V12.1928L134.085 13.7958C134.085 14.9455 134.118 16.2247 134.183 17.6334H128.356C128.486 15.3017 128.551 13.0996 128.551 11.027C128.551 8.95433 128.486 6.73598 128.356 4.3719C129.429 4.42048 130.25 4.44476 130.819 4.44476C131.42 4.44476 132.241 4.42048 133.281 4.3719L134.012 7.9666Z" fill="#0A263D"/>
<path d="M118.256 17.8762C115.477 17.8762 113.429 17.2447 112.112 15.9817C110.812 14.7025 110.162 13.0266 110.162 10.954C110.162 8.92994 110.812 7.28642 112.112 6.02341C113.429 4.76041 115.477 4.12891 118.256 4.12891C120.125 4.12891 121.685 4.43656 122.936 5.05187C124.204 5.65099 125.139 6.4687 125.74 7.50501C126.341 8.52513 126.642 9.67479 126.642 10.954C126.642 13.0428 125.943 14.7187 124.545 15.9817C123.164 17.2447 121.067 17.8762 118.256 17.8762ZM118.353 13.7472C119.41 13.7472 120.198 13.4962 120.718 12.9942C121.238 12.4923 121.498 11.8203 121.498 10.9783C121.498 10.1849 121.238 9.53715 120.718 9.03519C120.198 8.51703 119.41 8.25796 118.353 8.25796C117.297 8.25796 116.525 8.50894 116.037 9.0109C115.55 9.51286 115.306 10.1687 115.306 10.9783C115.306 11.8203 115.55 12.4923 116.037 12.9942C116.525 13.4962 117.297 13.7472 118.353 13.7472Z" fill="#0A263D"/>
<path d="M108.447 4.54195H95.185V7.09225C96.0138 7.10844 97.2571 7.11653 98.9149 7.11653C101.775 7.11653 104.684 7.06796 107.642 6.9708V11.7314C104.684 11.618 101.564 11.5613 98.281 11.5613C96.9158 11.5613 95.8838 11.5694 95.185 11.5856V17.6335H89.4316C89.5617 14.4921 89.6267 11.5532 89.6267 8.81673C89.6267 6.08022 89.5617 3.14131 89.4316 0H108.447V4.54195Z" fill="#0A263D"/>
<path d="M83.5709 4.37207L83.0102 5.7808C81.4662 9.87746 79.8491 13.8284 78.1589 17.6336C77.2812 19.5767 76.0135 21.1312 74.3558 22.297C72.6981 23.4791 70.6178 24.0458 68.1149 23.9972C67.8061 22.6533 67.5461 21.6008 67.3348 20.8397C67.1398 20.0949 66.8797 19.3419 66.5547 18.5809C67.4486 18.7914 68.2856 18.8966 69.0657 18.8966C70.3334 18.8966 71.341 18.6295 72.0886 18.0951C71.5035 16.3625 70.8128 14.5004 70.0164 12.5088C69.2201 10.5171 68.0662 7.80485 66.5547 4.37207H72.3324C72.5274 5.18169 72.7956 6.12084 73.1369 7.18954C73.4782 8.25823 73.8195 9.28645 74.1608 10.2742C74.2583 10.5819 74.4127 11.0514 74.624 11.683C74.8515 12.2983 75.0303 12.8164 75.1603 13.2374L75.7941 11.3186C77.0131 7.80485 77.7363 5.48934 77.9638 4.37207H83.5709Z" fill="#0A263D"/>
<path d="M65.0852 13.6014C65.0852 14.152 65.1502 14.5406 65.2802 14.7673C65.4103 14.994 65.6703 15.1559 66.0603 15.2531L65.9628 17.5362C65.4428 17.6172 64.9877 17.6738 64.5976 17.7062C64.2238 17.7386 63.72 17.7548 63.0862 17.7548C61.6885 17.7548 60.7621 17.4471 60.307 16.8318C59.852 16.2003 59.6244 15.3988 59.6244 14.4273V13.82C59.1531 15.1478 58.4624 16.1356 57.5523 16.7832C56.6584 17.4309 55.5126 17.7548 54.1149 17.7548C52.4897 17.7548 51.2626 17.4309 50.4337 16.7832C49.6211 16.1356 49.2148 15.1721 49.2148 13.8929C49.2148 12.8404 49.5642 12.0146 50.2631 11.4155C50.9619 10.8164 52.0427 10.4035 53.5054 10.1768C52.2703 9.30236 51.0351 8.54132 49.7999 7.89363C50.775 6.66301 51.8883 5.73195 53.1398 5.10045C54.3912 4.45276 55.9108 4.12891 57.6985 4.12891C60.2014 4.12891 62.0542 4.67135 63.2568 5.75624C64.4757 6.82494 65.0852 8.47655 65.0852 10.7111V13.6014ZM58.2105 8.40369C57.3816 8.40369 56.6503 8.54132 56.0164 8.81659C55.3826 9.09186 54.8137 9.50477 54.3099 10.0553C55.2851 9.94196 56.504 9.88529 57.9667 9.88529C58.568 9.88529 58.9906 9.81242 59.2344 9.66669C59.4782 9.52096 59.6001 9.33475 59.6001 9.10806C59.6001 8.91375 59.4782 8.75182 59.2344 8.62228C58.9906 8.47655 58.6493 8.40369 58.2105 8.40369ZM55.6507 13.7958C56.5609 13.7958 57.3816 13.6257 58.113 13.2857C58.8443 12.9295 59.3481 12.468 59.6244 11.9013V11.2698C59.2344 11.4641 58.8037 11.6179 58.3324 11.7312C57.8611 11.8284 57.2922 11.9255 56.6259 12.0227L55.7483 12.1684C54.8381 12.3465 54.3831 12.6542 54.3831 13.0914C54.3831 13.561 54.8056 13.7958 55.6507 13.7958Z" fill="#0A263D"/>
<path d="M47.5092 0C47.3955 2.73651 47.3386 5.67542 47.3386 8.81673C47.3386 11.958 47.3955 14.897 47.5092 17.6335H41.7803V11.027H32.809V17.6335H27.0801C27.2101 14.4921 27.2751 11.5532 27.2751 8.81673C27.2751 6.08022 27.2101 3.14131 27.0801 0H32.809V6.60647H41.7803V0H47.5092Z" fill="#0A263D"/>
</g>
<defs>
<clipPath id="clip0_3431_2377">
<rect width="167" height="24" fill="white"/>
</clipPath>
</defs>
</svg>
